<?xml version="1.0" encoding="UTF-8" standalone="no"?>
<svg xmlns="http://www.w3.org/2000/svg" xmlns:xlink="http://www.w3.org/1999/xlink" xmlns:sketch="http://www.bohemiancoding.com/sketch/ns" width="32px" height="17px" viewBox="0 0 32 17" version="1.1">
	<defs>
		<filter x="-50%" y="-50%" width="200%" height="200%" filterUnits="objectBoundingBox" id="filter-1">
			<feOffset dx="0" dy="1" in="SourceAlpha" result="shadowOffsetInner1"/>
			<feGaussianBlur stdDeviation="1" in="shadowOffsetInner1" result="shadowBlurInner1"/>
			<feComposite in="shadowBlurInner1" in2="SourceAlpha" operator="arithmetic" k2="-1" k3="1" result="shadowInnerInner1"/>
			<feColorMatrix values="0 0 0 0 0   0 0 0 0 0   0 0 0 0 0  0 0 0 0.5 0" in="shadowInnerInner1" type="matrix" result="shadowMatrixInner1"/>
			<feMerge>
				<feMergeNode in="SourceGraphic"/>
				<feMergeNode in="shadowMatrixInner1"/>
			</feMerge>
		</filter>
		<filter x="-50%" y="-50%" width="200%" height="200%" filterUnits="objectBoundingBox" id="filter-2">
			<feOffset dx="0" dy="1" in="SourceAlpha" result="shadowOffsetInner1"/>
			<feGaussianBlur stdDeviation="1" in="shadowOffsetInner1" result="shadowBlurInner1"/>
			<feComposite in="shadowBlurInner1" in2="SourceAlpha" operator="arithmetic" k2="-1" k3="1" result="shadowInnerInner1"/>
			<feColorMatrix values="0 0 0 0 0   0 0 0 0 0   0 0 0 0 0  0 0 0 0.7 0" in="shadowInnerInner1" type="matrix" result="shadowMatrixInner1"/>
			<feMerge>
				<feMergeNode in="SourceGraphic"/>
				<feMergeNode in="shadowMatrixInner1"/>
			</feMerge>
		</filter>
	</defs>
	<g id="Page-1" stroke="none" stroke-width="1" fill="none" fill-rule="evenodd" sketch:type="MSPage">
		<g sketch:type="MSLayerGroup">
			<path d="M8.35240541,2.11015179e-08 C3.93832179,2.95958918e-08 0.36,3.58449009 0.36,8.00220646 L0.36,17 L24.3675946,17 C28.7816782,17 32.36,13.41551 32.36,8.9977936 L32.36,3.64819424e-08 C32.36,-3.50343368e-08 8.35240541,2.11015179e-08 8.35240541,2.11015179e-08 L8.35240541,2.11015179e-08 L8.35240541,2.11015179e-08 Z" id="Rectangle" fill="#FFF" filter="url(#filter-1)" sketch:type="MSShapeGroup"/>
			<path d="M7.6352,8.39874286 C7.6352,8.44045735 7.62960006,8.4884283 7.6184,8.54265714 C7.60719994,8.59688599 7.59040011,8.64485693 7.568,8.68657143 C7.50826637,8.78668622 7.44293369,8.85759979 7.372,8.89931429 C7.30106631,8.94102878 7.23200034,8.96188571 7.1648,8.96188571 C7.11999978,8.96188571 7.06586698,8.95145725 7.0024,8.9306 C6.93893302,8.90974275 6.88106693,8.88262874 6.8288,8.84925714 C6.66453251,8.74079946 6.52453391,8.57811537 6.4088,8.3612 C6.29306609,8.14428463 6.15680078,7.98160054 6,7.87314286 C6,8.07337243 6.05786609,8.28819885 6.1736,8.51762857 C6.28933391,8.74705829 6.3472,8.96188471 6.3472,9.16211429 C6.3472,9.35400096 6.3042671,9.50834227 6.2184,9.62514286 C6.1325329,9.74194344 6.00746749,9.80034286 5.8432,9.80034286 C5.68639922,9.80034286 5.56320045,9.73985775 5.4736,9.61888571 C5.38399955,9.49791368 5.3392,9.34565806 5.3392,9.16211429 C5.3392,8.96188471 5.39706609,8.74705829 5.5128,8.51762857 C5.62853391,8.28819885 5.6864,8.07337243 5.6864,7.87314286 C5.54453262,7.95657185 5.40640067,8.11925593 5.272,8.3612 C5.13759933,8.60314407 4.99946738,8.76582815 4.8576,8.84925714 C4.79786637,8.88262874 4.74000028,8.90974275 4.684,8.9306 C4.62799972,8.95145725 4.57386693,8.96188571 4.5216,8.96188571 C4.43946626,8.96188571 4.36293369,8.93894309 4.292,8.89305714 C4.22106631,8.8471712 4.15946693,8.77834332 4.1072,8.68657143 C4.08479989,8.63651404 4.06800006,8.58645739 4.0568,8.5364 C4.04559994,8.48634261 4.04,8.44045735 4.04,8.39874286 C4.04,8.28194227 4.06426642,8.18600038 4.1128,8.11091429 C4.16133358,8.0358282 4.24159944,7.96074323 4.3536,7.88565714 C4.49546738,7.78554236 4.69333206,7.73131433 4.9472,7.72297143 C5.20106794,7.71462853 5.39519933,7.66457189 5.5296,7.5728 C5.37279922,7.47268521 5.17680118,7.42054288 4.9416,7.41637143 C4.70639882,7.41219998 4.51040078,7.36005764 4.3536,7.25994286 C4.25653285,7.20154257 4.18000028,7.12437191 4.124,7.02842857 C4.06799972,6.93248523 4.04,6.83862903 4.04,6.74685714 C4.04,6.68845685 4.04559994,6.6404859 4.0568,6.60294286 C4.06800006,6.56539981 4.08479989,6.51742886 4.1072,6.45902857 C4.15200022,6.36725668 4.21173296,6.2984288 4.2864,6.25254286 C4.36106704,6.20665691 4.43946626,6.18371429 4.5216,6.18371429 C4.57386693,6.18371429 4.62799972,6.19205706 4.684,6.20874286 C4.74000028,6.22542866 4.79786637,6.25045698 4.8576,6.28382857 C4.96960056,6.35891466 5.10773251,6.52159875 5.272,6.77188571 C5.43626749,7.02217268 5.57439944,7.18485677 5.6864,7.25994286 C5.6864,7.08474198 5.62853391,6.86991556 5.5128,6.61545714 C5.39706609,6.36099873 5.3392,6.1461723 5.3392,5.97097143 C5.3392,5.78742765 5.3821329,5.63725773 5.468,5.52045714 C5.5538671,5.40365656 5.67893251,5.34525714 5.8432,5.34525714 C6.00000078,5.34525714 6.12319955,5.40365656 6.2128,5.52045714 C6.30240045,5.63725773 6.3472,5.78742765 6.3472,5.97097143 C6.3472,6.1628581 6.28933391,6.38185591 6.1736,6.62797143 C6.05786609,6.87408695 6,7.08474198 6,7.25994286 C6.11946726,7.17651387 6.25386592,7.01591547 6.4032,6.77814286 C6.55253408,6.54037024 6.69439933,6.37560046 6.8288,6.28382857 C6.87360022,6.25045698 6.92586637,6.22542866 6.9856,6.20874286 C7.04533363,6.19205706 7.10506637,6.18371429 7.1648,6.18371429 C7.24693374,6.18371429 7.32159966,6.20457122 7.3888,6.24628571 C7.45600034,6.28800021 7.51573307,6.35891379 7.568,6.45902857 C7.59040011,6.50074307 7.60719994,6.54662832 7.6184,6.59668571 C7.62960006,6.64674311 7.6352,6.69679975 7.6352,6.74685714 C7.6352,6.85531483 7.60720028,6.95542811 7.5512,7.0472 C7.49519972,7.13897189 7.42240045,7.20988546 7.3328,7.25994286 C7.18346592,7.34337185 6.98000129,7.39759988 6.7224,7.42262857 C6.46479871,7.44765727 6.27626726,7.49771391 6.1568,7.5728 C6.26880056,7.64788609 6.4647986,7.70002843 6.7448,7.72922857 C7.0248014,7.75842872 7.22079944,7.81057105 7.3328,7.88565714 C7.43733386,7.95240033 7.51386642,8.0253996 7.5624,8.10465714 C7.61093358,8.18391468 7.6352,8.28194227 7.6352,8.39874286 L7.6352,8.39874286 L7.6352,8.39874286 Z M12.0368,8.39874286 C12.0368,8.44045735 12.0312,8.4884283 12.02,8.54265714 C12.0088,8.59688599 11.9920001,8.64485693 11.9696,8.68657143 C11.9098664,8.78668622 11.8445337,8.85759979 11.7736,8.89931429 C11.7026663,8.94102878 11.6336003,8.96188571 11.5664,8.96188571 C11.5215998,8.96188571 11.4674669,8.95145725 11.404,8.9306 C11.3405331,8.90974275 11.2826669,8.88262874 11.2304,8.84925714 C11.0661325,8.74079946 10.926134,8.57811537 10.8104,8.3612 C10.6946661,8.14428463 10.5584008,7.98160054 10.4016,7.87314286 C10.4016,8.07337243 10.4594661,8.28819885 10.5752,8.51762857 C10.690934,8.74705829 10.7488,8.96188471 10.7488,9.16211429 C10.7488,9.35400096 10.7058672,9.50834227 10.62,9.62514286 C10.534133,9.74194344 10.4090675,9.80034286 10.2448,9.80034286 C10.0879992,9.80034286 9.96480045,9.73985775 9.8752,9.61888571 C9.78559955,9.49791368 9.7408,9.34565806 9.7408,9.16211429 C9.7408,8.96188471 9.79866614,8.74705829 9.9144,8.51762857 C10.030134,8.28819885 10.088,8.07337243 10.088,7.87314286 C9.94613262,7.95657185 9.80800067,8.11925593 9.6736,8.3612 C9.53919933,8.60314407 9.40106738,8.76582815 9.2592,8.84925714 C9.19946637,8.88262874 9.14160028,8.90974275 9.0856,8.9306 C9.02959972,8.95145725 8.97546693,8.96188571 8.9232,8.96188571 C8.84106626,8.96188571 8.76453369,8.93894309 8.6936,8.89305714 C8.62266631,8.8471712 8.56106693,8.77834332 8.5088,8.68657143 C8.48639989,8.63651404 8.46960006,8.58645739 8.4584,8.5364 C8.44719994,8.48634261 8.4416,8.44045735 8.4416,8.39874286 C8.4416,8.28194227 8.46586642,8.18600038 8.5144,8.11091429 C8.56293358,8.0358282 8.64319944,7.96074323 8.7552,7.88565714 C8.89706738,7.78554236 9.09493206,7.73131433 9.3488,7.72297143 C9.60266794,7.71462853 9.79679933,7.66457189 9.9312,7.5728 C9.77439922,7.47268521 9.57840123,7.42054288 9.3432,7.41637143 C9.10799882,7.41219998 8.91200078,7.36005764 8.7552,7.25994286 C8.65813285,7.20154257 8.58160028,7.12437191 8.5256,7.02842857 C8.46959972,6.93248523 8.4416,6.83862903 8.4416,6.74685714 C8.4416,6.68845685 8.44719994,6.6404859 8.4584,6.60294286 C8.46960006,6.56539981 8.48639989,6.51742886 8.5088,6.45902857 C8.55360022,6.36725668 8.61333296,6.2984288 8.688,6.25254286 C8.76266704,6.20665691 8.84106626,6.18371429 8.9232,6.18371429 C8.97546693,6.18371429 9.02959972,6.19205706 9.0856,6.20874286 C9.14160028,6.22542866 9.19946637,6.25045698 9.2592,6.28382857 C9.37120056,6.35891466 9.50933251,6.52159875 9.6736,6.77188571 C9.83786749,7.02217268 9.97599944,7.18485677 10.088,7.25994286 C10.088,7.08474198 10.030134,6.86991556 9.9144,6.61545714 C9.79866614,6.36099873 9.7408,6.1461723 9.7408,5.97097143 C9.7408,5.78742765 9.78373296,5.63725773 9.8696,5.52045714 C9.95546704,5.40365656 10.0805325,5.34525714 10.2448,5.34525714 C10.4016008,5.34525714 10.5247996,5.40365656 10.6144,5.52045714 C10.7040004,5.63725773 10.7488,5.78742765 10.7488,5.97097143 C10.7488,6.1628581 10.690934,6.38185591 10.5752,6.62797143 C10.4594661,6.87408695 10.4016,7.08474198 10.4016,7.25994286 C10.5210673,7.17651387 10.6554659,7.01591547 10.8048,6.77814286 C10.9541341,6.54037024 11.0959993,6.37560046 11.2304,6.28382857 C11.2752002,6.25045698 11.3274664,6.22542866 11.3872,6.20874286 C11.4469336,6.19205706 11.5066664,6.18371429 11.5664,6.18371429 C11.6485337,6.18371429 11.7231997,6.20457122 11.7904,6.24628571 C11.8576003,6.28800021 11.9173331,6.35891379 11.9696,6.45902857 C11.9920001,6.50074307 12.0088,6.54662832 12.02,6.59668571 C12.0312,6.64674311 12.0368,6.69679975 12.0368,6.74685714 C12.0368,6.85531483 12.0088003,6.95542811 11.9528,7.0472 C11.8967998,7.13897189 11.8240004,7.20988546 11.7344,7.25994286 C11.5850659,7.34337185 11.3816013,7.39759988 11.124,7.42262857 C10.8663987,7.44765727 10.6778673,7.49771391 10.5584,7.5728 C10.6704006,7.64788609 10.8663987,7.70002843 11.1464,7.72922857 C11.4264015,7.75842872 11.6223994,7.81057105 11.7344,7.88565714 C11.8389339,7.95240033 11.9154665,8.0253996 11.964,8.10465714 C12.0125336,8.18391468 12.0368,8.28194227 12.0368,8.39874286 L12.0368,8.39874286 L12.0368,8.39874286 Z M20.056,11.3270857 C20.056,12.0862895 19.796536,12.7954253 19.2776,13.4545143 C18.758664,14.1136033 18.0026716,14.4431429 17.0096,14.4431429 C16.5391976,14.4431429 16.1976011,14.3722293 15.9848,14.2304 C15.771999,14.0885707 15.5237348,14.0176571 15.24,14.0176571 C15.0981326,14.0176571 14.9824004,14.0489426 14.8928,14.1115143 C14.8031996,14.1740861 14.7322669,14.2721136 14.68,14.4056 C14.6650666,14.4306287 14.6296003,14.4514856 14.5736,14.4681714 C14.5175998,14.4848572 14.4746668,14.4932 14.4448,14.4932 C14.4074665,14.4932 14.3608003,14.4827716 14.3048,14.4619143 C14.2487998,14.4410571 14.2208,14.4181144 14.2208,14.3930857 C14.2282667,14.284628 14.2376,14.1261153 14.2488,13.9175429 C14.2600001,13.7089704 14.2656,13.446173 14.2656,13.1291429 L14.2656,7.4852 C14.2656,7.15982694 14.2096006,6.94291483 14.0976,6.83445714 C13.9855994,6.72599946 13.791468,6.65508588 13.5152,6.62171429 C13.4927999,6.62171429 13.4722667,6.59042888 13.4536,6.52785714 C13.4349333,6.4652854 13.4256,6.41314307 13.4256,6.37142857 C13.4256,6.32971408 13.4349333,6.27548605 13.4536,6.20874286 C13.4722667,6.14199967 13.4927999,6.10862857 13.5152,6.10862857 C13.8661351,6.01685668 14.2674645,5.87920092 14.7192,5.69565714 C15.1709356,5.51211337 15.5162655,5.35360067 15.7552,5.22011429 C15.7776001,5.20342849 15.8149331,5.18257155 15.8672,5.15754286 C15.9194669,5.13251416 15.9642665,5.12 16.0016,5.12 C16.0986672,5.12 16.1658665,5.13668555 16.2032,5.17005714 C16.2405335,5.20342874 16.2592,5.24097122 16.2592,5.28268571 C16.2367999,5.59971587 16.2162668,5.96679791 16.1976,6.38394286 C16.1789333,6.8010878 16.1696,7.13897014 16.1696,7.3976 L16.1696,9.1496 C16.3040007,8.94102753 16.4962655,8.77417205 16.7464,8.64902857 C16.9965346,8.52388509 17.2783984,8.46131429 17.592,8.46131429 C18.2640034,8.46131429 18.8426642,8.69699764 19.328,9.16837143 C19.8133358,9.63974521 20.056,10.3593094 20.056,11.3270857 L20.056,11.3270857 L20.056,11.3270857 Z M18.0288,11.3771429 C18.0288,10.6596536 17.9541341,10.1361445 17.8048,9.8066 C17.6554659,9.4770555 17.3904019,9.31228571 17.0096,9.31228571 C16.7407987,9.31228571 16.5336007,9.40822761 16.388,9.60011429 C16.2423992,9.79200096 16.1696,10.0005703 16.1696,10.2258286 L16.1696,13.004 C16.1696,13.2459441 16.2255994,13.444085 16.3376,13.5984286 C16.4496006,13.7527721 16.6287988,13.8299429 16.8752,13.8299429 C17.3232022,13.8299429 17.6274658,13.5734025 17.788,13.0603143 C17.9485342,12.5472261 18.0288,11.9861745 18.0288,11.3771429 L18.0288,11.3771429 L18.0288,11.3771429 Z M24.3904,8.39874286 C24.3904,8.44045735 24.3848001,8.4884283 24.3736,8.54265714 C24.3623999,8.59688599 24.3456001,8.64485693 24.3232,8.68657143 C24.2634664,8.78668622 24.1981337,8.85759979 24.1272,8.89931429 C24.0562664,8.94102878 23.9872003,8.96188571 23.92,8.96188571 C23.8751998,8.96188571 23.821067,8.95145725 23.7576,8.9306 C23.6941331,8.90974275 23.6362669,8.88262874 23.584,8.84925714 C23.4197325,8.74079946 23.279734,8.57811537 23.164,8.3612 C23.0482661,8.14428463 22.9120008,7.98160054 22.7552,7.87314286 C22.7552,8.07337243 22.8130661,8.28819885 22.9288,8.51762857 C23.044534,8.74705829 23.1024,8.96188471 23.1024,9.16211429 C23.1024,9.35400096 23.0594672,9.50834227 22.9736,9.62514286 C22.887733,9.74194344 22.7626675,9.80034286 22.5984,9.80034286 C22.4415992,9.80034286 22.3184004,9.73985775 22.2288,9.61888571 C22.1391996,9.49791368 22.0944,9.34565806 22.0944,9.16211429 C22.0944,8.96188471 22.1522661,8.74705829 22.268,8.51762857 C22.383734,8.28819885 22.4416,8.07337243 22.4416,7.87314286 C22.2997326,7.95657185 22.1616007,8.11925593 22.0272,8.3612 C21.8927993,8.60314407 21.7546674,8.76582815 21.6128,8.84925714 C21.5530664,8.88262874 21.4952003,8.90974275 21.4392,8.9306 C21.3831998,8.95145725 21.3290669,8.96188571 21.2768,8.96188571 C21.1946663,8.96188571 21.1181337,8.93894309 21.0472,8.89305714 C20.9762664,8.8471712 20.9146669,8.77834332 20.8624,8.68657143 C20.8399999,8.63651404 20.8232001,8.58645739 20.812,8.5364 C20.8008,8.48634261 20.7952,8.44045735 20.7952,8.39874286 C20.7952,8.28194227 20.8194665,8.18600038 20.868,8.11091429 C20.9165336,8.0358282 20.9967994,7.96074323 21.1088,7.88565714 C21.2506674,7.78554236 21.4485321,7.73131433 21.7024,7.72297143 C21.9562679,7.71462853 22.1503993,7.66457189 22.2848,7.5728 C22.1279992,7.47268521 21.9320012,7.42054288 21.6968,7.41637143 C21.4615989,7.41219998 21.2656008,7.36005764 21.1088,7.25994286 C21.0117328,7.20154257 20.9352003,7.12437191 20.8792,7.02842857 C20.8231998,6.93248523 20.7952,6.83862903 20.7952,6.74685714 C20.7952,6.68845685 20.8008,6.6404859 20.812,6.60294286 C20.8232001,6.56539981 20.8399999,6.51742886 20.8624,6.45902857 C20.9072002,6.36725668 20.966933,6.2984288 21.0416,6.25254286 C21.116267,6.20665691 21.1946663,6.18371429 21.2768,6.18371429 C21.3290669,6.18371429 21.3831998,6.19205706 21.4392,6.20874286 C21.4952003,6.22542866 21.5530664,6.25045698 21.6128,6.28382857 C21.7248006,6.35891466 21.8629325,6.52159875 22.0272,6.77188571 C22.1914675,7.02217268 22.3295994,7.18485677 22.4416,7.25994286 C22.4416,7.08474198 22.383734,6.86991556 22.268,6.61545714 C22.1522661,6.36099873 22.0944,6.1461723 22.0944,5.97097143 C22.0944,5.78742765 22.137333,5.63725773 22.2232,5.52045714 C22.3090672,5.40365656 22.4341325,5.34525714 22.5984,5.34525714 C22.7552008,5.34525714 22.8783996,5.40365656 22.968,5.52045714 C23.0576004,5.63725773 23.1024,5.78742765 23.1024,5.97097143 C23.1024,6.1628581 23.044534,6.38185591 22.9288,6.62797143 C22.8130661,6.87408695 22.7552,7.08474198 22.7552,7.25994286 C22.8746673,7.17651387 23.0090659,7.01591547 23.1584,6.77814286 C23.3077341,6.54037024 23.4495993,6.37560046 23.584,6.28382857 C23.6288002,6.25045698 23.6810664,6.22542866 23.7408,6.20874286 C23.8005336,6.19205706 23.8602664,6.18371429 23.92,6.18371429 C24.0021337,6.18371429 24.0767997,6.20457122 24.144,6.24628571 C24.2112003,6.28800021 24.2709331,6.35891379 24.3232,6.45902857 C24.3456001,6.50074307 24.3623999,6.54662832 24.3736,6.59668571 C24.3848001,6.64674311 24.3904,6.69679975 24.3904,6.74685714 C24.3904,6.85531483 24.3624003,6.95542811 24.3064,7.0472 C24.2503998,7.13897189 24.1776004,7.20988546 24.088,7.25994286 C23.9386659,7.34337185 23.7352013,7.39759988 23.4776,7.42262857 C23.2199988,7.44765727 23.0314673,7.49771391 22.912,7.5728 C23.0240006,7.64788609 23.2199987,7.70002843 23.5,7.72922857 C23.7800015,7.75842872 23.9759994,7.81057105 24.088,7.88565714 C24.1925339,7.95240033 24.2690665,8.0253996 24.3176,8.10465714 C24.3661336,8.18391468 24.3904,8.28194227 24.3904,8.39874286 L24.3904,8.39874286 L24.3904,8.39874286 Z M28.792,8.39874286 C28.792,8.44045735 28.7864001,8.4884283 28.7752,8.54265714 C28.7639999,8.59688599 28.7472001,8.64485693 28.7248,8.68657143 C28.6650664,8.78668622 28.5997337,8.85759979 28.5288,8.89931429 C28.4578664,8.94102878 28.3888003,8.96188571 28.3216,8.96188571 C28.2767998,8.96188571 28.2226669,8.95145725 28.1592,8.9306 C28.0957331,8.90974275 28.0378669,8.88262874 27.9856,8.84925714 C27.8213325,8.74079946 27.681334,8.57811537 27.5656,8.3612 C27.4498661,8.14428463 27.3136008,7.98160054 27.1568,7.87314286 C27.1568,8.07337243 27.214666,8.28819885 27.3304,8.51762857 C27.446134,8.74705829 27.504,8.96188471 27.504,9.16211429 C27.504,9.35400096 27.4610672,9.50834227 27.3752,9.62514286 C27.289333,9.74194344 27.1642675,9.80034286 27,9.80034286 C26.8431992,9.80034286 26.7200004,9.73985775 26.6304,9.61888571 C26.5407996,9.49791368 26.496,9.34565806 26.496,9.16211429 C26.496,8.96188471 26.553866,8.74705829 26.6696,8.51762857 C26.7853339,8.28819885 26.8432,8.07337243 26.8432,7.87314286 C26.7013326,7.95657185 26.5632007,8.11925593 26.4288,8.3612 C26.2943993,8.60314407 26.1562674,8.76582815 26.0144,8.84925714 C25.9546664,8.88262874 25.8968002,8.90974275 25.8408,8.9306 C25.7847997,8.95145725 25.7306669,8.96188571 25.6784,8.96188571 C25.5962663,8.96188571 25.5197336,8.93894309 25.4488,8.89305714 C25.3778663,8.8471712 25.3162669,8.77834332 25.264,8.68657143 C25.2415999,8.63651404 25.2248001,8.58645739 25.2136,8.5364 C25.2024,8.48634261 25.1968,8.44045735 25.1968,8.39874286 C25.1968,8.28194227 25.2210665,8.18600038 25.2696,8.11091429 C25.3181335,8.0358282 25.3983994,7.96074323 25.5104,7.88565714 C25.6522674,7.78554236 25.8501321,7.73131433 26.104,7.72297143 C26.3578679,7.71462853 26.5519993,7.66457189 26.6864,7.5728 C26.5295992,7.47268521 26.3336011,7.42054288 26.0984,7.41637143 C25.8631989,7.41219998 25.6672008,7.36005764 25.5104,7.25994286 C25.4133328,7.20154257 25.3368002,7.12437191 25.2808,7.02842857 C25.2247997,6.93248523 25.1968,6.83862903 25.1968,6.74685714 C25.1968,6.68845685 25.2024,6.6404859 25.2136,6.60294286 C25.2248001,6.56539981 25.2415999,6.51742886 25.264,6.45902857 C25.3088002,6.36725668 25.368533,6.2984288 25.4432,6.25254286 C25.517867,6.20665691 25.5962663,6.18371429 25.6784,6.18371429 C25.7306669,6.18371429 25.7847997,6.19205706 25.8408,6.20874286 C25.8968002,6.22542866 25.9546664,6.25045698 26.0144,6.28382857 C26.1264006,6.35891466 26.2645325,6.52159875 26.4288,6.77188571 C26.5930675,7.02217268 26.7311994,7.18485677 26.8432,7.25994286 C26.8432,7.08474198 26.7853339,6.86991556 26.6696,6.61545714 C26.553866,6.36099873 26.496,6.1461723 26.496,5.97097143 C26.496,5.78742765 26.538933,5.63725773 26.6248,5.52045714 C26.710667,5.40365656 26.8357325,5.34525714 27,5.34525714 C27.1568008,5.34525714 27.2799996,5.40365656 27.3696,5.52045714 C27.4592004,5.63725773 27.504,5.78742765 27.504,5.97097143 C27.504,6.1628581 27.446134,6.38185591 27.3304,6.62797143 C27.214666,6.87408695 27.1568,7.08474198 27.1568,7.25994286 C27.2762673,7.17651387 27.4106659,7.01591547 27.56,6.77814286 C27.7093341,6.54037024 27.8511993,6.37560046 27.9856,6.28382857 C28.0304002,6.25045698 28.0826664,6.22542866 28.1424,6.20874286 C28.2021336,6.19205706 28.2618664,6.18371429 28.3216,6.18371429 C28.4037337,6.18371429 28.4783997,6.20457122 28.5456,6.24628571 C28.6128003,6.28800021 28.6725331,6.35891379 28.7248,6.45902857 C28.7472001,6.50074307 28.7639999,6.54662832 28.7752,6.59668571 C28.7864001,6.64674311 28.792,6.69679975 28.792,6.74685714 C28.792,6.85531483 28.7640003,6.95542811 28.708,7.0472 C28.6519998,7.13897189 28.5792004,7.20988546 28.4896,7.25994286 C28.3402659,7.34337185 28.1368013,7.39759988 27.8792,7.42262857 C27.6215987,7.44765727 27.4330673,7.49771391 27.3136,7.5728 C27.4256006,7.64788609 27.6215985,7.70002843 27.9016,7.72922857 C28.1816013,7.75842872 28.3775994,7.81057105 28.4896,7.88565714 C28.5941339,7.95240033 28.6706664,8.0253996 28.7192,8.10465714 C28.7677335,8.18391468 28.792,8.28194227 28.792,8.39874286 L28.792,8.39874286 L28.792,8.39874286 Z" id="**b**" fill="#999" filter="url(#filter-2)" sketch:type="MSShapeGroup"/>
		</g>
	</g>
</svg>
