<?xml version="1.0" encoding="UTF-8" standalone="no"?>
<svg xmlns="http://www.w3.org/2000/svg" xmlns:xlink="http://www.w3.org/1999/xlink" xmlns:sketch="http://www.bohemiancoding.com/sketch/ns" width="32px" height="17px" viewBox="0 0 32 17" version="1.1">
	<defs>
		<filter x="-50%" y="-50%" width="200%" height="200%" filterUnits="objectBoundingBox" id="filter-1">
			<feOffset dx="0" dy="1" in="SourceAlpha" result="shadowOffsetInner1"/>
			<feGaussianBlur stdDeviation="1" in="shadowOffsetInner1" result="shadowBlurInner1"/>
			<feComposite in="shadowBlurInner1" in2="SourceAlpha" operator="arithmetic" k2="-1" k3="1" result="shadowInnerInner1"/>
			<feColorMatrix values="0 0 0 0 0   0 0 0 0 0   0 0 0 0 0  0 0 0 0.5 0" in="shadowInnerInner1" type="matrix" result="shadowMatrixInner1"/>
			<feMerge>
				<feMergeNode in="SourceGraphic"/>
				<feMergeNode in="shadowMatrixInner1"/>
			</feMerge>
		</filter>
	</defs>
	<g id="Page-1" stroke="none" stroke-width="1" fill="none" fill-rule="evenodd" sketch:type="MSPage">
		<g sketch:type="MSLayerGroup">
			<path d="M7.90060853,2.11015179e-08 C3.48652491,2.95958918e-08 -0.091796875,3.58449009 -0.091796875,8.00220646 L-0.091796875,17 L23.9157977,17 C28.3298813,17 31.9082031,13.41551 31.9082031,8.9977936 L31.9082031,3.64819424e-08 C31.9082031,-3.50343368e-08 7.90060853,2.11015179e-08 7.90060853,2.11015179e-08 L7.90060853,2.11015179e-08 L7.90060853,2.11015179e-08 Z" id="Rectangle" fill="#FFF" filter="url(#filter-1)" sketch:type="MSShapeGroup"/>
			<path d="M10.8417969,12.9042969 L10.7255859,13.4238281 L8.92089844,13.1503906 L8.92089844,4.97460938 L10.7255859,4.70117188 L10.8417969,5.22070312 L9.59082031,5.41210938 L9.59082031,12.7128906 L10.8417969,12.9042969 L10.8417969,12.9042969 Z M16.5429688,13.1708984 C15.5403596,13.1708984 14.7086622,12.7994829 14.0478516,12.0566406 C13.387041,11.3137984 13.0566406,10.3772843 13.0566406,9.24707031 C13.0566406,8.03938198 13.383623,7.09831066 14.0375977,6.42382812 C14.6915723,5.74934559 15.6041608,5.41210938 16.7753906,5.41210938 C17.3541696,5.41210938 18.0012985,5.49186118 18.7167969,5.65136719 L18.7167969,6.77929688 C17.9557254,6.55598847 17.3359399,6.44433594 16.8574219,6.44433594 C16.1692674,6.44433594 15.6167013,6.70295965 15.199707,7.22021484 C14.7827128,7.73747003 14.5742188,8.42675351 14.5742188,9.28808594 C14.5742188,10.1220745 14.7884093,10.7965469 15.2167969,11.3115234 C15.6451844,11.8265 16.2057257,12.0839844 16.8984375,12.0839844 C17.513675,12.0839844 18.1471322,11.9267594 18.7988281,11.6123047 L18.7988281,12.7744141 C17.9283811,13.0387383 17.1764355,13.1708984 16.5429688,13.1708984 L16.5429688,13.1708984 L16.5429688,13.1708984 Z M23.5771484,13.1503906 L21.7724609,13.4238281 L21.65625,12.9042969 L22.9072266,12.7128906 L22.9072266,5.41210938 L21.65625,5.22070312 L21.7724609,4.70117188 L23.5771484,4.97460938 L23.5771484,13.1503906 L23.5771484,13.1503906 Z" id="[c]" fill="#555" sketch:type="MSShapeGroup"/>
		</g>
	</g>
</svg>
