<?xml version="1.0" encoding="UTF-8" standalone="no"?>
<svg width="500px" height="500px" viewBox="0 0 500 500" version="1.1" xmlns="http://www.w3.org/2000/svg" xmlns:xlink="http://www.w3.org/1999/xlink" xmlns:sketch="http://www.bohemiancoding.com/sketch/ns">
	<defs>
		<linearGradient x1="49.9998349%" y1="0%" x2="49.9998349%" y2="100%" id="linearGradient-1">
			<stop stop-color="#FFF" offset="0%"></stop>
			<stop stop-color="#D4D4D4" offset="100%"></stop>
		</linearGradient>
	</defs>
	<g id="Page-1" stroke="none" stroke-width="1" fill="none" fill-rule="evenodd" sketch:type="MSPage">
		<g id="Layer-1" sketch:type="MSLayerGroup" transform="translate(1.000000, -1.000000)" fill="url(#linearGradient-1)">
			<path d="M-0.798679868,0.0144404332 L498.839934,0.0144404332 L498.839934,500.909747 L-0.798679868,500.909747 L-0.798679868,0.0144404332 Z" id="Shape" sketch:type="MSShapeGroup"></path>
		</g>
		<g id="#000000ff" sketch:type="MSLayerGroup" transform="translate(141.000000, 106.000000)" stroke="#000" stroke-width="0.09375" fill="#000" fill-opacity="0.77">
			<path d="M210.448251,0 C210.462623,65.1869686 210.442503,130.371033 210.459749,195.558001 C214.181927,194.210287 218.113928,193.49867 222.066048,193.399915 C221.714,193.334667 227.052686,193.557493 232.793693,195.070684 C237.786387,196.386639 243.022056,198.822937 245.856375,201.073755 C250.386224,204.684119 254.022174,209.52311 255.890449,215.065005 C258.221482,221.838431 257.793216,229.523889 254.732119,235.992337 C250.811616,244.386506 242.979232,250.544166 234.25295,253.164076 C226.811467,255.46739 218.671536,255.345399 211.278915,252.908475 C204.271447,250.573212 197.896317,246.036294 193.780364,239.800211 C190.977951,235.629267 189.356863,230.700234 188.971711,225.686969 C188.974585,169.463463 188.988957,113.237052 188.965963,57.0106411 C138.614512,68.7537643 88.2458168,80.4155599 37.8914925,92.1383512 C32.3930153,93.430879 26.8772925,94.6420792 21.3960609,96.0101255 C21.4133065,142.883863 21.3931866,189.754697 21.4075579,236.62553 C31.941755,232.867033 44.1660224,233.918483 53.7057223,239.893156 C58.2499421,242.722195 62.1560742,246.65206 64.7917791,251.354538 C67.1026917,255.458676 68.3673702,260.155345 68.4334784,264.87525 C68.4622211,269.862374 67.14868,274.846593 64.6681855,279.162764 C60.5637289,286.345733 53.5447633,291.60879 45.7612419,294.077664 C35.9082467,297.252344 24.7359618,296.218322 15.7337503,291.013356 C8.06519973,286.650712 2.03210841,279.023346 0.471380169,270.170257 C0.356409396,269.081048 0.0862280797,268.015075 0.00574853865,266.925867 C0.00574853865,194.236428 0.0143713466,121.546989 0,48.8575502 C65.6885512,33.6086269 131.371354,18.3306581 197.059905,3.07302111 C201.523645,2.05642622 205.97014,0.952694635 210.448251,0 Z" id="Shape" sketch:type="MSShapeGroup"></path>
		</g>
	</g>
</svg>