<?xml version="1.0" encoding="UTF-8" standalone="no"?>
<svg xmlns="http://www.w3.org/2000/svg" xmlns:xlink="http://www.w3.org/1999/xlink" xmlns:sketch="http://www.bohemiancoding.com/sketch/ns" width="14px" height="14px" viewBox="0 0 14 14" version="1.1">
	<g id="Page-1" stroke="none" stroke-width="1" fill="none" fill-rule="evenodd" sketch:type="MSPage">
		<path d="M7,14 C10.3137085,14 13,11.3137085 13,8 C13,4.6862915 10.3137085,2 7,2 C3.6862915,2 1,4.6862915 1,8 C1,11.3137085 3.6862915,14 7,14 Z M10.0541284,9.67867393 L8.58541427,11.233783 L7.00142317,9.55661596 L5.42170159,11.233783 L3.94871795,9.67867393 L5.53270905,8.00150689 L3.94871795,6.33790184 L5.43024062,4.76923077 L7.00142317,6.43735649 L8.57687524,4.76923077 L10.0541284,6.33790184 L8.47013729,8.00150689 L10.0541284,9.67867393 Z" id="Oval-2" fill-opacity="0.4" fill="#000" sketch:type="MSShapeGroup"/>
		<path d="M7,13 C10.3137085,13 13,10.3137085 13,7 C13,3.6862915 10.3137085,1 7,1 C3.6862915,1 1,3.6862915 1,7 C1,10.3137085 3.6862915,13 7,13 Z M10.0541284,8.67867393 L8.58541427,10.233783 L7.00142317,8.55661596 L5.42170159,10.233783 L3.94871795,8.67867393 L5.53270905,7.00150689 L3.94871795,5.33790184 L5.43024062,3.76923077 L7.00142317,5.43735649 L8.57687524,3.76923077 L10.0541284,5.33790184 L8.47013729,7.00150689 L10.0541284,8.67867393 Z" id="Oval-3" stroke-opacity="0.28832654" stroke="#999" fill="#FFF" sketch:type="MSShapeGroup"/>
	</g>
</svg>
