<?xml version="1.0" encoding="UTF-8" standalone="no"?>
<svg xmlns="http://www.w3.org/2000/svg" xmlns:xlink="http://www.w3.org/1999/xlink" xmlns:sketch="http://www.bohemiancoding.com/sketch/ns" width="14px" height="14px" viewBox="0 0 14 14" version="1.1">
	<g id="Page-1" stroke="none" stroke-width="1" fill="none" fill-rule="evenodd" sketch:type="MSPage">
		<g sketch:type="MSLayerGroup" transform="translate(1.000000, 1.000000)">
			<path d="M11.864972,10.0237873 L8.97691231,12.911847 L5.86217351,9.79710821 L2.75583022,12.911847 L-0.140625,10.0237873 L2.97411381,6.90904851 L-0.140625,3.81949627 L2.77262127,0.90625 L5.86217351,4.00419776 L8.96012127,0.90625 L11.864972,3.81949627 L8.75023321,6.90904851 L11.864972,10.0237873 L11.864972,10.0237873 Z" id="&#x2716;&#xFE0E;-2" fill-opacity="0.4" fill="#000" sketch:type="MSShapeGroup"/>
			<path d="M11.864972,9.02378731 L8.97691231,11.911847 L5.86217351,8.79710821 L2.75583022,11.911847 L-0.140625,9.02378731 L2.97411381,5.90904851 L-0.140625,2.81949627 L2.77262127,-0.09375 L5.86217351,3.00419776 L8.96012127,-0.09375 L11.864972,2.81949627 L8.75023321,5.90904851 L11.864972,9.02378731 L11.864972,9.02378731 Z" id="&#x2716;&#xFE0E;" stroke-opacity="0.306867074" stroke="#7F7F7F" fill="#FFF" sketch:type="MSShapeGroup"/>
		</g>
	</g>
</svg>
