<?xml version="1.0" encoding="UTF-8" standalone="no"?>
<svg xmlns="http://www.w3.org/2000/svg" xmlns:xlink="http://www.w3.org/1999/xlink" xmlns:sketch="http://www.bohemiancoding.com/sketch/ns" width="32px" height="17px" viewBox="0 0 32 17" version="1.1">
	<defs>
		<filter x="-50%" y="-50%" width="200%" height="200%" filterUnits="objectBoundingBox" id="filter-1">
			<feOffset dx="0" dy="1" in="SourceAlpha" result="shadowOffsetInner1"/>
			<feGaussianBlur stdDeviation="1" in="shadowOffsetInner1" result="shadowBlurInner1"/>
			<feComposite in="shadowBlurInner1" in2="SourceAlpha" operator="arithmetic" k2="-1" k3="1" result="shadowInnerInner1"/>
			<feColorMatrix values="0 0 0 0 0   0 0 0 0 0   0 0 0 0 0  0 0 0 0.5 0" in="shadowInnerInner1" type="matrix" result="shadowMatrixInner1"/>
			<feMerge>
				<feMergeNode in="SourceGraphic"/>
				<feMergeNode in="shadowMatrixInner1"/>
			</feMerge>
		</filter>
	</defs>
	<g id="Page-1" stroke="none" stroke-width="1" fill="none" fill-rule="evenodd" sketch:type="MSPage">
		<g sketch:type="MSLayerGroup">
			<path d="M7.99240541,2.11015179e-08 C3.57832179,2.95958918e-08 5.4562828e-18,3.58449009 0,8.00220646 L1.12273449e-17,17 L24.0075946,17 C28.4216782,17 32,13.41551 32,8.9977936 L32,3.64819424e-08 C32,-3.50343368e-08 7.99240541,2.11015179e-08 7.99240541,2.11015179e-08 L7.99240541,2.11015179e-08 L7.99240541,2.11015179e-08 Z" id="Rectangle" fill="white" filter="url(#filter-1)" sketch:type="MSShapeGroup"/>
			<path d="M17.103693,3.5 C17.4098663,3.5 17.6678876,3.60617141 17.8777644,3.81851742 C18.0876413,4.03086342 18.1925782,4.28765009 18.1925782,4.58888513 C18.1925782,4.89012016 18.0864068,5.14690683 17.8740607,5.35925284 C17.6617147,5.57159885 17.4049281,5.67777026 17.103693,5.67777026 C16.8073963,5.67777026 16.5530787,5.57159885 16.3407327,5.35925284 C16.1283867,5.14690683 16.0222153,4.89012016 16.0222153,4.58888513 C16.0222153,4.28765009 16.1271521,4.03086342 16.337029,3.81851742 C16.5469059,3.60617141 16.802458,3.5 17.103693,3.5 L17.103693,3.5 L17.103693,3.5 Z M17.5629507,6.90739565 L16.0444374,12.1740441 C15.9604867,12.4752792 15.9185119,12.6728074 15.9185119,12.7666347 C15.9185119,12.8209557 15.9407339,12.8715724 15.9851784,12.918486 C16.0296229,12.9653997 16.0765358,12.9888561 16.1259186,12.9888561 C16.2098694,12.9888561 16.2938189,12.9518196 16.3777696,12.8777454 C16.5999922,12.6950291 16.8666553,12.3641693 17.1777668,11.8851562 L17.4296178,12.0333039 C16.6839377,13.3320713 15.8913557,13.9814453 15.0518483,13.9814453 C14.7308601,13.9814453 14.475308,13.8913231 14.2851842,13.7110759 C14.0950605,13.5308287 14,13.3024367 14,13.025893 C14,12.8431767 14.0419748,12.6110811 14.1259255,12.3295991 L15.1555516,8.78887064 C15.2543172,8.44812937 15.3036992,8.1913427 15.3036992,8.01850292 C15.3036992,7.90986078 15.2567863,7.81356578 15.162959,7.72961503 C15.0691317,7.64566428 14.9407383,7.60368954 14.7777751,7.60368954 C14.7037009,7.60368954 14.6148132,7.60615864 14.5111094,7.61109692 L14.6074053,7.31480165 L17.1185078,6.90739565 L17.5629507,6.90739565 L17.5629507,6.90739565 Z" id="i" stroke="#999" fill="#FFF" sketch:type="MSShapeGroup"/>
		</g>
	</g>
</svg>
