<?xml version="1.0" encoding="UTF-8" standalone="no"?>
<svg xmlns="http://www.w3.org/2000/svg" xmlns:xlink="http://www.w3.org/1999/xlink" xmlns:sketch="http://www.bohemiancoding.com/sketch/ns" width="63px" height="69px" viewBox="0 0 63 69" version="1.1">
	<g id="Page-1" stroke="none" stroke-width="1" fill="none" fill-rule="evenodd" sketch:type="MSPage">
		<path d="M50.0599098,49.6315613 L43.0532778,49.6315601 C43.0532778,49.6315601 43.0572982,29.4075624 43.0519379,16.2952248 C31.3139563,19.0337918 9.26566182,25.0711027 7.98787152,25.3901394 C7.99189183,36.3213772 7.99055195,59.2487183 7.99055195,59.2487183 C7.99055195,59.2487183 1.02010158,59.5027293 1.00134011,59.2487194 C1.00134011,42.2971045 1.00335026,28.3454897 1,11.3938749 C16.313382,7.83773416 49.0159689,0.222174125 50.0599107,0 C50.0632612,15.2019936 50.0599098,49.6315613 50.0599098,49.6315613 Z" id="Shape" stroke="#000" stroke-width="0.09375" fill-opacity="0.77" fill="#000" sketch:type="MSShapeGroup"/>
		<path d="M52.9899679,58.6279297 C58.5072748,58.6279297 62.9799357,54.9281666 62.9799357,50.100523 C62.9799357,45.2728795 58.5072748,40.7991536 52.9899679,40.7991536 C47.472661,40.7991536 43,45.2728795 43,50.100523 C43,54.9281666 47.472661,58.6279297 52.9899679,58.6279297 Z" id="Oval-2" fill="#3B3B3B" sketch:type="MSShapeGroup"/>
		<path d="M11,68.7135417 C16.5228475,68.7135417 21,64.4039801 21,59.5330823 C21,54.6621845 16.5228475,50.7135417 11,50.7135417 C5.4771525,50.7135417 1,54.6621845 1,59.5330823 C1,64.4039801 5.4771525,68.7135417 11,68.7135417 Z" id="Oval-1" fill="#3B3B3B" sketch:type="MSShapeGroup"/>
	</g>
</svg>
