<svg xmlns="http://www.w3.org/2000/svg" viewBox="0 0 102 52">
	<defs>
		<filter x="-50%" y="-50%" width="200%" height="200%" filterUnits="objectBoundingBox" id="filter-1">
			<feOffset dx="0" dy="1" in="SourceAlpha" result="shadowOffsetInner1"/>
			<feGaussianBlur stdDeviation="1" in="shadowOffsetInner1" result="shadowBlurInner1"/>
			<feComposite in="shadowBlurInner1" in2="SourceAlpha" operator="arithmetic" k2="-1" k3="1" result="shadowInnerInner1"/>
			<feColorMatrix values="0 0 0 0 0   0 0 0 0 0   0 0 0 0 0  0 0 0 1 0" in="shadowInnerInner1" type="matrix" result="shadowMatrixInner1"/>
			<feMerge>
				<feMergeNode in="SourceGraphic"/>
				<feMergeNode in="shadowMatrixInner1"/>
			</feMerge>
		</filter>
	</defs>
	<g fill="none" fill-rule="evenodd">
		<path d="M31 49.4c-3.6 1.4-6.9 2-9.8 2a19.1 19.1 0 0 1-17.9-12C1.6 35.4.7 30.8.7 25.8s.9-9.6 2.6-13.6A19 19 0 0 1 21.3 0c2.8 0 6 .7 9.7 2v6.8C27.6 6.8 24.3 6 21 6c-2.5 0-4.8.9-6.9 2.6a24.6 24.6 0 0 0-7 17.3 29 29 0 0 0 2 9.9c1.4 3.3 3 5.8 5.1 7.4 2 1.7 4.3 2.5 6.8 2.5 3.3 0 6.6-1 10-2.9v6.7Zm6.3-1.4v-6c5 2.4 9.6 3.6 13.6 3.6 1.7 0 3.4-.3 5-1 1.5-.6 3-1.9 3.7-4.2.7-2.2.4-4.9-.7-6.4-1-1.4-3.1-3-6.2-4.8l-3.2-1.9-3.2-1.8c-5.7-3.4-8.5-7.5-8.5-12.5 0-3.6 1.3-6.7 3.8-9.2C44.1 1.3 48.1.1 53.5.1c3.4 0 6.8.5 10 1.5V8c-3.6-1.4-7-2-10.4-2A10 10 0 0 0 47 7.5c-1.7 1-3 2.7-3 4.7s.7 3.6 2 4.9c1.3 1.3 2.9 2.5 4.9 3.6l2.4 1.5 3 1.8 2.6 1.5c5.3 3.3 8 7.4 8 12.3 0 3.7-1.4 7-4.1 9.6-2.7 2.7-7.1 4-13.1 4A30 30 0 0 1 37.3 49v-1Zm35 0v-6c5 2.4 9.6 3.6 13.6 3.6 1.7 0 3.4-.3 5-1 1.5-.6 3-1.9 3.7-4.2.7-2.2.4-4.9-.7-6.4-1-1.4-3.1-3-6.2-4.8l-3.2-1.9-3.2-1.8c-5.7-3.4-8.5-7.5-8.5-12.5 0-3.6 1.3-6.7 3.8-9.2C79.1 1.3 83.1.1 88.5.1c3.4 0 6.8.5 10 1.5V8c-3.6-1.4-7-2-10.4-2A10 10 0 0 0 82 7.5c-1.7 1-3 2.7-3 4.7s.7 3.6 2 4.9c1.3 1.3 2.9 2.5 4.9 3.6l2.4 1.5 3 1.8 2.6 1.5c5.3 3.3 8 7.4 8 12.3 0 3.7-1.4 7-4.1 9.6-2.7 2.7-7.1 4-13.1 4A30 30 0 0 1 72.3 49v-1Z" id="CSS" fill="#7ED321" filter="url(#filter-1)"/>
	</g>
</svg>
