<?xml version="1.0" encoding="UTF-8" standalone="no"?>
<svg xmlns="http://www.w3.org/2000/svg" xmlns:xlink="http://www.w3.org/1999/xlink" xmlns:sketch="http://www.bohemiancoding.com/sketch/ns" width="30px" height="30px" viewBox="0 0 30 30" version="1.1">
	<defs>
		<filter x="-50%" y="-50%" width="200%" height="200%" filterUnits="objectBoundingBox" id="filter-1">
			<feOffset dx="0" dy="1" in="SourceAlpha" result="shadowOffsetInner1"/>
			<feGaussianBlur stdDeviation="0.5" in="shadowOffsetInner1" result="shadowBlurInner1"/>
			<feComposite in="shadowBlurInner1" in2="SourceAlpha" operator="arithmetic" k2="-1" k3="1" result="shadowInnerInner1"/>
			<feColorMatrix values="0 0 0 0 0   0 0 0 0 0   0 0 0 0 0  0 0 0 0.35 0" in="shadowInnerInner1" type="matrix" result="shadowMatrixInner1"/>
			<feMerge>
				<feMergeNode in="SourceGraphic"/>
				<feMergeNode in="shadowMatrixInner1"/>
			</feMerge>
		</filter>
	</defs>
	<g id="Page-1" stroke="none" stroke-width="1" fill="none" fill-rule="evenodd" sketch:type="MSPage">
		<path d="M28.4860558,8.12 C28.4860558,7.08 27.9282869,6.56 26.8525896,6.56 C25.8964143,6.56 24.2629482,6.72 21.87251,7 C22.1115538,5.48 22.310757,4.32 22.4302789,3.52 C22.6294821,2.32 22.749004,1.64 22.749004,1.48 C22.749004,1.04 22.5498008,0.68 22.1912351,0.4 C21.7928287,0.16 21.3545817,0.04 20.9561753,0.04 C20.2390438,0.04 19.7609562,0.72 19.5219124,2 C19.2031873,3.68 18.8844622,5.48 18.5657371,7.32 L12.0318725,7.96 C12.749004,6.12 13.3864542,4.6 13.8645418,3.4 L14.4621514,1.84 C14.4621514,0.64 13.9442231,0 12.9880478,0 C12.3904382,0 11.87251,0.32 11.4741036,0.88 C11.1553785,1.36 10.7171315,2.08 10.2390438,3 C9.60159363,4.12 9.32270916,4.8 9.32270916,5.12 C9.32270916,5.36 9.3625498,5.56 9.48207171,5.72 L8.48605578,8.48 C5.77689243,9 3.30677291,9.56 1.15537849,10.2 C0.358565737,10.44 0,10.92 0,11.64 C0,12.92 0.478087649,13.52 1.47410359,13.52 C1.5936255,13.52 1.9123506,13.44 2.47011952,13.28 C4.94023904,12.68 6.57370518,12.28 7.41035857,12.08 C6.85258964,14.56 6.45418327,16.52 6.25498008,17.92 C4.34262948,18 2.94820717,18.08 1.99203187,18.12 C0.956175299,18.24 0.438247012,18.8 0.438247012,19.76 C0.438247012,20.88 0.956175299,21.44 1.99203187,21.44 C3.46613546,21.44 4.70119522,21.4 5.73705179,21.28 C5.49800797,23.68 5.41832669,25.44 5.41832669,26.6 C5.41832669,27.8 5.97609562,28.36 7.09163347,28.36 C8.12749004,28.36 8.64541833,27.84 8.64541833,26.72 C8.64541833,24.2 8.7250996,22.32 8.88446215,21.04 C12.0717131,20.64 14.5816733,20.32 16.4143426,20.04 C15.936255,22.6 15.5776892,24.48 15.4183267,25.72 C15.2589641,26.48 15.2191235,26.96 15.2191235,27.16 C15.2191235,28.28 15.7768924,28.84 16.9721116,28.84 C17.7689243,28.84 18.247012,28.12 18.4860558,26.68 C18.7649402,24.72 19.1633466,22.36 19.6414343,19.6 L24.063745,18.92 C24.3027888,19.08 24.5418327,19.12 24.8605578,19.12 C25.4183267,19.12 26.0159363,18.92 26.5737052,18.48 C27.1314741,18.08 27.4501992,17.56 27.4501992,16.96 C27.4501992,15.8 26.7330677,15.2 25.2988048,15.2 C25.1394422,15.2 24.6613546,15.32 23.8645418,15.48 C22.9083665,15.72 22.2310757,15.88 21.8326693,15.92 L20.1992032,16.16 L21.2350598,10.32 L22.9482072,10.24 L23.5059761,10.48 C24.5816733,10.48 25.6573705,10.32 26.7330677,9.96 C27.8884462,9.6 28.4860558,9 28.4860558,8.12 L28.4860558,8.12 Z M17.9681275,10.64 L16.8924303,16.56 C13.0677291,17.16 10.5976096,17.48 9.48207171,17.56 C10.0398406,14.92 10.5179283,12.88 10.9163347,11.44 C14.6613546,10.96 17.0119522,10.72 17.9681275,10.64 L17.9681275,10.64 Z" id="#" fill="#11B6BE" filter="url(#filter-1)" sketch:type="MSShapeGroup"/>
	</g>
</svg>
