<?xml version="1.0" encoding="UTF-8" standalone="no"?>
<svg xmlns="http://www.w3.org/2000/svg" xmlns:xlink="http://www.w3.org/1999/xlink" xmlns:sketch="http://www.bohemiancoding.com/sketch/ns" width="14px" height="17px" viewBox="0 0 14 17" version="1.1">
	<g id="Page-1" stroke="none" stroke-width="1" fill="none" fill-rule="evenodd" sketch:type="MSPage">
		<g id="Sage" sketch:type="MSLayerGroup" fill="#838383">
			<g id="Page-1" sketch:type="MSShapeGroup">
				<g id="Down-Arrow">
					<path d="M2.63565217,0.00301886792 C5.49652174,-0.00301886792 8.35434783,-0.00301886792 11.2152174,0.00301886792 C11.123913,0.504150943 11.0326087,1.00528302 10.9504348,1.50943396 C8.26304348,1.50641509 5.57565217,1.51849057 2.89130435,1.50339623 C2.80913043,1.00226415 2.72391304,0.501132075 2.63565217,0.00301886792 C2.63565217,0.00301886792 2.72391304,0.501132075 2.63565217,0.00301886792 L2.63565217,0.00301886792 L2.63565217,0.00301886792 Z" id="Shape"/>
					<path d="M3.13478261,2.96150943 C5.65478261,2.95849057 8.17478261,2.9554717 10.6978261,2.9645283 C10.6126087,3.44150943 10.5334783,3.92150943 10.4573913,4.4045283 C8.10173913,4.41056604 5.74608696,4.40754717 3.39347826,4.4045283 C3.31130435,3.9245283 3.22304348,3.44150943 3.13478261,2.96150943 C3.13478261,2.96150943 3.22304348,3.44150943 3.13478261,2.96150943 L3.13478261,2.96150943 L3.13478261,2.96150943 Z" id="Shape"/>
					<path d="M3.63695652,5.85962264 C5.82826087,5.85660377 8.01652174,5.85358491 10.2047826,5.85962264 C10.0465217,6.74113208 9.90347826,7.62566038 9.75434783,8.51018868 C11.1421739,8.51924528 12.53,8.50415094 13.9178261,8.51622642 C11.5865217,11.085283 9.26130435,13.6603774 6.92391304,16.2233962 C4.58956522,13.6573585 2.25826087,11.0913208 -0.0639130435,8.51622642 C1.32086957,8.50716981 2.70565217,8.51622642 4.0873913,8.50716981 C3.93217391,7.62566038 3.79217391,6.74113208 3.63695652,5.85962264 C3.63695652,5.85962264 3.79217391,6.74113208 3.63695652,5.85962264 L3.63695652,5.85962264 L3.63695652,5.85962264 Z" id="Shape"/>
				</g>
			</g>
		</g>
	</g>
</svg>
