<?xml version="1.0" encoding="UTF-8" standalone="no"?>
<svg xmlns="http://www.w3.org/2000/svg" xmlns:xlink="http://www.w3.org/1999/xlink" xmlns:sketch="http://www.bohemiancoding.com/sketch/ns" width="32px" height="17px" viewBox="0 0 32 17" version="1.1">
	<defs>
		<filter x="-50%" y="-50%" width="200%" height="200%" filterUnits="objectBoundingBox" id="filter-1">
			<feOffset dx="0" dy="1" in="SourceAlpha" result="shadowOffsetInner1"/>
			<feGaussianBlur stdDeviation="1" in="shadowOffsetInner1" result="shadowBlurInner1"/>
			<feComposite in="shadowBlurInner1" in2="SourceAlpha" operator="arithmetic" k2="-1" k3="1" result="shadowInnerInner1"/>
			<feColorMatrix values="0 0 0 0 0   0 0 0 0 0   0 0 0 0 0  0 0 0 0.5 0" in="shadowInnerInner1" type="matrix" result="shadowMatrixInner1"/>
			<feMerge>
				<feMergeNode in="SourceGraphic"/>
				<feMergeNode in="shadowMatrixInner1"/>
			</feMerge>
		</filter>
	</defs>
	<g id="Page-1" stroke="none" stroke-width="1" fill="none" fill-rule="evenodd" sketch:type="MSPage">
		<g sketch:type="MSLayerGroup">
			<path d="M7.99240541,2.11015179e-08 C3.57832179,2.95958918e-08 5.4562828e-18,3.58449009 0,8.00220646 L1.12273449e-17,17 L24.0075946,17 C28.4216782,17 32,13.41551 32,8.9977936 L32,3.64819424e-08 C32,-3.50343368e-08 7.99240541,2.11015179e-08 7.99240541,2.11015179e-08 L7.99240541,2.11015179e-08 L7.99240541,2.11015179e-08 Z" id="Rectangle" fill="#FFF" filter="url(#filter-1)" sketch:type="MSShapeGroup"/>
			<path d="M8.756,10.916 C8.948,10.592 9.236,10.436 9.644,10.436 C9.944,10.436 10.16,10.472 10.892,10.664 C11.54,10.844 11.876,10.904 12.128,10.904 C12.776,10.904 13.208,10.52 13.448,9.716 L13.232,9.584 C13.04,9.92 12.752,10.064 12.308,10.064 C12.068,10.064 11.708,9.992 11.132,9.836 C10.616,9.692 10.136,9.608 9.86,9.608 C9.188,9.608 8.768,9.992 8.54,10.784 L8.756,10.916 L8.756,10.916 Z M17.576,14.864 L18.08,14.864 L18.08,13.844 C18.752,13.808 19.16,13.712 19.64,13.436 C20.408,13.004 20.84,12.236 20.84,11.288 C20.84,10.4 20.492,9.752 19.76,9.26 C19.448,9.044 19.136,8.9 18.08,8.42 L18.08,5.012 C18.488,5.048 18.668,5.108 18.848,5.288 C19.076,5.504 19.196,5.852 19.208,6.26 C19.208,6.74 19.208,6.74 19.292,6.86 C19.388,7.016 19.604,7.1 19.892,7.1 C20.444,7.1 20.768,6.848 20.768,6.416 C20.768,5.912 20.444,5.456 19.856,5.132 C19.388,4.88 18.908,4.772 18.08,4.724 L18.08,4.064 L17.576,4.064 L17.576,4.724 C16.94,4.796 16.544,4.892 16.172,5.096 C15.452,5.48 15.008,6.26 15.008,7.136 C15.008,8.288 15.656,8.96 17.576,9.776 L17.576,13.544 C16.832,13.424 16.46,12.956 16.412,12.092 C16.388,11.6 16.388,11.6 16.316,11.492 C16.22,11.36 16.004,11.276 15.728,11.276 C15.152,11.276 14.804,11.528 14.804,11.96 C14.804,12.5 15.14,13.016 15.74,13.376 C16.244,13.688 16.748,13.808 17.576,13.844 L17.576,14.864 L17.576,14.864 Z M17.576,8.24 C16.592,7.76 16.268,7.352 16.268,6.608 C16.268,6.128 16.412,5.708 16.676,5.42 C16.904,5.18 17.156,5.06 17.576,5.012 L17.576,8.24 L17.576,8.24 Z M18.08,9.98 C19.16,10.508 19.508,10.952 19.508,11.792 C19.508,12.212 19.424,12.56 19.244,12.86 C18.98,13.292 18.632,13.496 18.08,13.544 L18.08,9.98 L18.08,9.98 Z" id="~$" fill="#555" sketch:type="MSShapeGroup"/>
		</g>
	</g>
</svg>
