<?xml version="1.0" encoding="UTF-8" standalone="no"?>
<svg xmlns="http://www.w3.org/2000/svg" xmlns:xlink="http://www.w3.org/1999/xlink" xmlns:sketch="http://www.bohemiancoding.com/sketch/ns" width="32px" height="17px" viewBox="0 0 32 17" version="1.1">
	<defs>
		<filter x="-50%" y="-50%" width="200%" height="200%" filterUnits="objectBoundingBox" id="filter-1">
			<feOffset dx="0" dy="1" in="SourceAlpha" result="shadowOffsetInner1"/>
			<feGaussianBlur stdDeviation="1" in="shadowOffsetInner1" result="shadowBlurInner1"/>
			<feComposite in="shadowBlurInner1" in2="SourceAlpha" operator="arithmetic" k2="-1" k3="1" result="shadowInnerInner1"/>
			<feColorMatrix values="0 0 0 0 0   0 0 0 0 0   0 0 0 0 0  0 0 0 0.5 0" in="shadowInnerInner1" type="matrix" result="shadowMatrixInner1"/>
			<feMerge>
				<feMergeNode in="SourceGraphic"/>
				<feMergeNode in="shadowMatrixInner1"/>
			</feMerge>
		</filter>
	</defs>
	<g id="Page-1" stroke="none" stroke-width="1" fill="none" fill-rule="evenodd" sketch:type="MSPage">
		<path d="M7.99240541,2.11015179e-08 C3.57832179,2.95958918e-08 5.4562828e-18,3.58449009 0,8.00220646 L1.12273449e-17,17 L24.0075946,17 C28.4216782,17 32,13.41551 32,8.9977936 L32,3.64819424e-08 C32,-3.50343368e-08 7.99240541,2.11015179e-08 7.99240541,2.11015179e-08 L7.99240541,2.11015179e-08 Z" id="Rectangle" fill="#FFF" filter="url(#filter-1)" sketch:type="MSShapeGroup"/>
		<path d="M8.47561583,8.88305664 C9.02491173,9.30124257 9.38292958,9.63121245 9.54968013,9.87297619 C9.71643067,10.1147399 9.79980469,10.3793692 9.79980469,10.6668721 C9.79980469,11.1503995 9.5529522,11.7335641 9.05923981,12.4163834 C8.56552742,13.0992026 7.90343962,13.7607758 7.07295653,14.401123 L6.54328098,13.7640461 C6.98140986,13.42427 7.33288857,13.0583628 7.59772767,12.6663135 C7.86256676,12.2742642 8.05383657,11.8430165 8.17154284,11.3725573 C7.80534557,11.1438619 7.55031915,10.9478402 7.40645594,10.7844863 C7.26259273,10.6211324 7.1906622,10.4545139 7.1906622,10.2846259 C7.1906622,10.160477 7.2331666,10.0363299 7.31817668,9.91218093 C7.40318676,9.78803198 7.6026305,9.59854432 7.91651387,9.34371227 L8.47561583,8.88305664 L8.47561583,8.88305664 Z M4.53247569,8.88305664 C5.07523235,9.29470841 5.42998063,9.62141127 5.59673117,9.86317501 C5.76348171,10.1049387 5.84685573,10.3728351 5.84685573,10.6668721 C5.84685573,11.1503995 5.60163803,11.7335641 5.11119526,12.4163834 C4.62075249,13.0992026 3.96029947,13.7607758 3.12981638,14.401123 L2.59033203,13.7640461 C3.02192167,13.42427 3.3717656,13.0583628 3.63987431,12.6663135 C3.90798302,12.2742642 4.10088762,11.8430165 4.21859388,11.3725573 C3.84585738,11.1438619 3.58756139,10.9478402 3.44369818,10.7844863 C3.29983497,10.6211324 3.22790444,10.4545139 3.22790444,10.2846259 C3.22790444,10.160477 3.27204363,10.0363299 3.36032333,9.91218093 C3.44860303,9.78803198 3.64641198,9.59854432 3.95375611,9.34371227 L4.53247569,8.88305664 L4.53247569,8.88305664 Z M28.9613169,2.56225586 L29.4881241,3.20701607 C29.0507726,3.53916693 28.6979146,3.8957353 28.4295398,4.27673188 C28.161165,4.65772846 27.9640284,5.0924488 27.8381241,5.58090595 C28.2290899,5.82187814 28.4924909,6.0205144 28.628335,6.17682069 C28.764179,6.33312698 28.8321,6.49594359 28.8321,6.6652754 C28.8321,6.79553064 28.7890282,6.92089943 28.7028832,7.04138552 C28.6167382,7.16187162 28.417945,7.34911072 28.1064976,7.60310843 L27.5101121,8.06225586 C26.979989,7.66497738 26.627131,7.3426005 26.4515278,7.09511554 C26.2759245,6.84763058 26.1881241,6.57735502 26.1881241,6.28428073 C26.1881241,5.8088491 26.4382722,5.22922198 26.9385759,4.54538197 C27.4388796,3.86154196 28.1131199,3.20050653 28.9613169,2.56225586 L28.9613169,2.56225586 Z M25.0281456,2.56225586 L25.5648926,3.20701607 C25.127541,3.53916693 24.7763397,3.89899164 24.5112781,4.28650097 C24.2462166,4.67401031 24.0540498,5.10547432 23.9347721,5.58090595 C24.3058583,5.81536538 24.5609762,6.01074531 24.7001335,6.1670516 C24.8392909,6.32335788 24.9088685,6.48943082 24.9088685,6.6652754 C24.9088685,6.79553064 24.86414,6.92089943 24.7746817,7.04138552 C24.6852235,7.16187162 24.4847737,7.34911072 24.1733263,7.60310843 L23.60676,8.06225586 C23.0633838,7.65846462 22.7038995,7.3328314 22.5282962,7.08534645 C22.3526929,6.83786149 22.2648926,6.57084225 22.2648926,6.28428073 C22.2648926,5.8088491 22.5150407,5.22922198 23.0153444,4.54538197 C23.5156481,3.86154196 24.1865751,3.20050653 25.0281456,2.56225586 L25.0281456,2.56225586 Z" id="path-2" stroke="#999" sketch:type="MSShapeGroup"/>
	</g>
</svg>
